<svg viewBox="0 0 300 200" xmlns="http://www.w3.org/2000/svg">
    <rect width="300" height="200" fill="#1E293B" rx="10" />
    <!-- Background elements -->
    <circle cx="150" cy="100" r="80" fill="#172554" opacity="0.2" />
    <circle cx="220" cy="50" r="30" fill="#0EA5E9" opacity="0.1" />
    <circle cx="70" cy="150" r="40" fill="#0EA5E9" opacity="0.1" />
    
    <!-- Chat window -->
    <rect x="40" y="40" width="220" height="120" rx="6" fill="#0F172A" />
    <rect x="40" y="40" width="220" height="25" rx="6" fill="#1E40AF" />
    
    <!-- Chat UI elements -->
    <circle cx="55" cy="52.5" r="5" fill="#EF4444" />
    <circle cx="75" cy="52.5" r="5" fill="#F59E0B" />
    <circle cx="95" cy="52.5" r="5" fill="#10B981" />
    
    <!-- Chat messages -->
    <rect x="55" y="80" width="150" height="10" rx="5" fill="#1E40AF" opacity="0.6" />
    <rect x="95" y="100" width="150" height="10" rx="5" fill="#3B82F6" opacity="0.6" />
    <rect x="55" y="120" width="120" height="10" rx="5" fill="#1E40AF" opacity="0.6" />
    
    <!-- AI brain icon -->
    <circle cx="240" cy="140" r="15" fill="#3B82F6" />
    <path d="M240 130 L240 150 M235 135 L245 145 M235 145 L245 135" stroke="white" stroke-width="2" />
    
    <!-- Text "AI" -->
    <text x="150" y="180" font-family="Arial" font-size="16" fill="white" text-anchor="middle">DendrIA Chat</text>
</svg>