<svg viewBox="0 0 300 200" xmlns="http://www.w3.org/2000/svg">
    <rect width="300" height="200" fill="#1E293B" rx="10" />
    <!-- Background elements -->
    <circle cx="150" cy="100" r="80" fill="#581C87" opacity="0.2" />
    <circle cx="230" cy="40" r="30" fill="#A855F7" opacity="0.1" />
    <circle cx="60" cy="160" r="40" fill="#A855F7" opacity="0.1" />
    
    <!-- Dashboard -->
    <rect x="40" y="40" width="220" height="120" rx="6" fill="#0F172A" />
    <rect x="40" y="40" width="220" height="25" rx="6" fill="#7E22CE" />
    
    <!-- Charts and graphs -->
    <rect x="50" y="75" width="80" height="40" rx="3" fill="#1F2937" />
    <polyline points="55,105 65,90 75,95 85,85 95,100 105,80 115,95 125,90" stroke="#A855F7" stroke-width="2" fill="none" />
    
    <rect x="140" y="75" width="110" height="40" rx="3" fill="#1F2937" />
    <circle cx="170" cy="95" r="15" fill="#7E22CE" opacity="0.3" />
    <circle cx="170" cy="95" r="10" fill="#A855F7" opacity="0.5" />
    <circle cx="195" cy="95" r="20" fill="#7E22CE" opacity="0.3" />
    <circle cx="195" cy="95" r="15" fill="#A855F7" opacity="0.5" />
    <circle cx="225" cy="95" r="10" fill="#7E22CE" opacity="0.3" />
    <circle cx="225" cy="95" r="5" fill="#A855F7" opacity="0.5" />
    
    <rect x="50" y="125" width="200" height="25" rx="3" fill="#1F2937" />
    <rect x="60" y="130" width="20" height="15" rx="2" fill="#A855F7" opacity="0.5" />
    <rect x="90" y="130" width="40" height="15" rx="2" fill="#A855F7" opacity="0.3" />
    <rect x="140" y="130" width="30" height="15" rx="2" fill="#A855F7" opacity="0.7" />
    <rect x="180" y="130" width="60" height="15" rx="2" fill="#A855F7" opacity="0.4" />
    
    <!-- AI brain icon -->
    <circle cx="55" cy="52.5" r="8" fill="#A855F7" />
    <path d="M55 47.5 v10 M51 49.5 l4 -4 l4 4 M51 55.5 l4 4 l4 -4" stroke="white" stroke-width="1.5" />
    
    <!-- Text -->
    <text x="150" y="180" font-family="Arial" font-size="16" fill="white" text-anchor="middle">InsightMind</text>
</svg>