<svg viewBox="0 0 300 200" xmlns="http://www.w3.org/2000/svg">
    <rect width="300" height="200" fill="#1E293B" rx="10" />
    <!-- Background elements -->
    <circle cx="150" cy="100" r="80" fill="#064E3B" opacity="0.2" />
    <circle cx="50" cy="50" r="30" fill="#10B981" opacity="0.1" />
    <circle cx="250" cy="150" r="40" fill="#10B981" opacity="0.1" />
    
    <!-- E-commerce storefront -->
    <rect x="40" y="30" width="220" height="140" rx="6" fill="#0F172A" />
    
    <!-- Header -->
    <rect x="40" y="30" width="220" height="25" rx="6" fill="#065F46" />
    <rect x="180" y="37.5" width="30" height="10" rx="5" fill="white" opacity="0.3" />
    <circle cx="230" cy="42.5" r="8" fill="white" opacity="0.3" />
    
    <!-- Products grid -->
    <rect x="50" y="65" width="60" height="45" rx="3" fill="#1F2937" />
    <rect x="120" y="65" width="60" height="45" rx="3" fill="#1F2937" />
    <rect x="190" y="65" width="60" height="45" rx="3" fill="#1F2937" />
    <rect x="50" y="120" width="60" height="45" rx="3" fill="#1F2937" />
    <rect x="120" y="120" width="60" height="45" rx="3" fill="#1F2937" />
    <rect x="190" y="120" width="60" height="45" rx="3" fill="#1F2937" />
    
    <!-- Shopping cart icon -->
    <circle cx="250" cy="42.5" r="8" fill="#10B981" />
    <path d="M246 42.5 h8 M247 39.5 l3 -3 l3 3 M250 39.5 v6" stroke="white" stroke-width="1.5" />
    
    <!-- Text -->
    <text x="150" y="180" font-family="Arial" font-size="16" fill="white" text-anchor="middle">PymeCommerce</text>
</svg>